<?xml version="1.0" standalone="no"?>
<!DOCTYPE svg PUBLIC "-//W3C//DTD SVG 20010904//EN"
 "http://www.w3.org/TR/2001/REC-SVG-20010904/DTD/svg10.dtd">
<svg version="1.0" xmlns="http://www.w3.org/2000/svg"
 width="156.000000pt" height="156.000000pt" viewBox="0 0 156.000000 156.000000"
 preserveAspectRatio="xMidYMid meet">
<metadata>
Created by potrace 1.14, written by Peter Selinger 2001-2017
</metadata>
<g transform="translate(0.000000,156.000000) scale(0.100000,-0.100000)"
fill="#000000" stroke="none">
<path d="M592 1535 c-296 -76 -512 -301 -577 -602 -18 -85 -13 -264 9 -348 34
-124 133 -295 213 -365 105 -94 217 -157 340 -192 111 -32 295 -32 406 0 224
64 400 210 497 414 56 118 74 193 74 323 1 131 -6 183 -40 276 -136 378 -535
592 -922 494z m477 -127 c90 -26 200 -96 259 -164 208 -236 196 -585 -28 -803
-51 -50 -142 -106 -213 -132 -46 -16 -90 -23 -172 -25 -95 -3 -120 0 -188 22
-44 14 -77 27 -75 29 2 2 32 -3 68 -12 213 -50 439 61 535 261 54 115 63 243
25 357 -115 341 -539 442 -796 191 -95 -94 -142 -218 -139 -363 1 -63 0 -77
-7 -54 -16 52 -17 216 -2 275 83 326 411 513 733 418z m-228 -312 c26 -8 61
-22 78 -30 52 -27 120 -102 149 -163 23 -50 27 -70 27 -153 0 -84 -3 -101 -28
-152 -52 -103 -155 -179 -267 -197 -59 -10 -66 1 -11 17 47 15 112 76 142 134
66 127 5 297 -128 360 -72 34 -182 33 -243 -4 -93 -55 -141 -135 -142 -240
l-1 -62 -14 40 c-15 42 -19 142 -7 190 21 88 104 193 185 235 78 39 180 49
260 25z m-37 -210 c70 -29 118 -101 122 -183 2 -43 -3 -60 -29 -103 -45 -74
-100 -103 -183 -97 -91 7 -152 53 -178 137 -29 98 13 193 109 243 37 20 115
21 159 3z"/>
</g>
</svg>
