<svg xmlns="http://www.w3.org/2000/svg" width="188.233" height="200" viewBox="0 0 188.233 200"><path d="M438.5,2073.56c-42.881,0-77.545,35.142-78.817,78.824H372.2c1.248-37.156,30.347-66.315,66.3-66.315s65.052,29.159,66.3,66.315h12.517C516.045,2108.7,481.382,2073.56,438.5,2073.56Zm-76.264,85.932a17.893,17.893,0,0,0-17.852,17.852v23.423a17.892,17.892,0,0,0,17.852,17.852h11.57a3.571,3.571,0,0,0,3.57-3.57v-51.987a3.571,3.571,0,0,0-3.57-3.57Zm140.958,0a3.571,3.571,0,0,0-3.57,3.57v51.987a3.57,3.57,0,0,0,3.57,3.57h2.7v1.083a36.244,36.244,0,0,1-33.32,36.328,11.147,11.147,0,0,0-10.457-6.945H439.675c-5.767,0-11.063,4.361-11.063,10.316v3.842c0,5.956,5.3,10.317,11.063,10.317h22.443a11.137,11.137,0,0,0,10.49-7.033,46.949,46.949,0,0,0,43.759-46.825v-1.159a17.9,17.9,0,0,0,16.249-17.776v-23.423a17.892,17.892,0,0,0-17.852-17.852Zm-63.52,98.745h22.443c1.42,0,1.91.759,1.91,1.164v3.842c0,.405-.49,1.164-1.91,1.164H439.675c-1.42,0-1.91-.759-1.91-1.164V2259.4C437.765,2259,438.255,2258.237,439.675,2258.237Z" transform="translate(-344.384 -2073.56)"/></svg>