<svg xmlns="http://www.w3.org/2000/svg" width="142.802" height="200" viewBox="0 0 142.802 200"><g transform="translate(-16.73 -262.208)"><path d="M26.439,262.208a9.688,9.688,0,0,0-9.709,9.709V452.5a9.688,9.688,0,0,0,9.709,9.709H149.823a9.688,9.688,0,0,0,9.709-9.709V271.917a9.688,9.688,0,0,0-9.709-9.709ZM40.48,280.242h95.3a7.487,7.487,0,0,1,7.5,7.5V421.228a7.484,7.484,0,0,1-7.5,7.5H40.48a7.484,7.484,0,0,1-7.5-7.5V287.744A7.487,7.487,0,0,1,40.48,280.242Zm65.488,34.665V393.53H122.7V314.907Zm-26.2,23.2V393.53h16.73V338.107Zm-26.2,25.775V393.53H70.29V363.882Zm34.567,72.232a8.738,8.738,0,1,1-8.738,8.739,8.739,8.739,0,0,1,8.738-8.739Z" transform="translate(0 0)"/></g></svg>