<svg xmlns="http://www.w3.org/2000/svg" width="200" height="181.492" viewBox="0 0 200 181.492"><path d="M299.172,241.51a15.556,15.556,0,0,0-15.442,15.442V407.56A15.556,15.556,0,0,0,299.172,423H468.288A15.556,15.556,0,0,0,483.73,407.56V256.952a15.556,15.556,0,0,0-15.442-15.442Zm121.681,11.834a6.246,6.246,0,1,1-6.247,6.245,6.246,6.246,0,0,1,6.247-6.245Zm20.647,0a6.246,6.246,0,1,1-6.247,6.245,6.246,6.246,0,0,1,6.247-6.245Zm20.647,0a6.246,6.246,0,1,1-6.247,6.246A6.246,6.246,0,0,1,462.147,253.344ZM296.966,278.021H470.494V407.56a2.071,2.071,0,0,1-2.206,2.206H299.172a2.071,2.071,0,0,1-2.206-2.206Zm86.764,17.534c-.472,0-.939.022-1.4.059a48.411,48.411,0,0,0,0,96.781c.463.037.93.059,1.4.059s.939-.022,1.4-.059a48.411,48.411,0,0,0,0-96.781c-.463-.037-.93-.059-1.4-.059Zm-3.8,8.368v14.71H367.766a43.7,43.7,0,0,1,2.068-4.375C372.807,308.812,376.331,305.356,379.926,303.923Zm7.608,0c3.595,1.432,7.118,4.888,10.092,10.335a43.7,43.7,0,0,1,2.068,4.375H387.534Zm15.108,3.9a40.851,40.851,0,0,1,13.075,10.811h-7.881a54.589,54.589,0,0,0-3.531-8.02Q403.515,309.169,402.641,307.822Zm-37.824,0q-.871,1.346-1.661,2.79a54.6,54.6,0,0,0-3.531,8.02h-7.881A40.849,40.849,0,0,1,364.817,307.823Zm-17.849,18.418h10.486a79.97,79.97,0,0,0-1.811,13.96H343.1A40.615,40.615,0,0,1,346.968,326.241Zm18.327,0h14.631V340.2H363.259A71.748,71.748,0,0,1,365.3,326.241Zm22.239,0h14.631A71.732,71.732,0,0,1,404.2,340.2H387.534Zm22.473,0h10.486a40.615,40.615,0,0,1,3.866,13.96h-12.54a79.959,79.959,0,0,0-1.811-13.96Zm-66.9,21.568h12.54a79.98,79.98,0,0,0,1.811,13.96h-10.39l-.094,0a40.615,40.615,0,0,1-3.867-13.963Zm20.157,0h16.666v13.96H365.3A71.745,71.745,0,0,1,363.259,347.809Zm24.274,0H404.2a71.735,71.735,0,0,1-2.036,13.96H387.534Zm24.284,0h12.54a40.615,40.615,0,0,1-3.866,13.962H410.006a79.968,79.968,0,0,0,1.811-13.96Zm-60.073,21.568h7.88a54.593,54.593,0,0,0,3.531,8.02q.788,1.444,1.661,2.79A40.851,40.851,0,0,1,351.745,369.378Zm16.021,0h12.159v14.71c-3.595-1.432-7.118-4.889-10.092-10.335A43.687,43.687,0,0,1,367.766,369.378Zm19.767,0h12.159a43.7,43.7,0,0,1-2.068,4.375c-2.973,5.447-6.5,8.9-10.092,10.335Zm20.3,0h7.881a40.852,40.852,0,0,1-13.074,10.811q.872-1.346,1.662-2.791A54.606,54.606,0,0,0,407.835,369.378Z" transform="translate(-283.73 -241.51)"/></svg>