<svg xmlns="http://www.w3.org/2000/svg" width="200" height="181.492" viewBox="0 0 200 181.492"><path d="M299.172,2075.368a15.556,15.556,0,0,0-15.442,15.442v150.608a15.556,15.556,0,0,0,15.442,15.442H468.288a15.556,15.556,0,0,0,15.442-15.442V2090.81a15.556,15.556,0,0,0-15.442-15.442ZM420.853,2087.2a6.246,6.246,0,1,1-6.247,6.246,6.246,6.246,0,0,1,6.247-6.246Zm20.647,0a6.246,6.246,0,1,1-6.247,6.246,6.246,6.246,0,0,1,6.247-6.246Zm20.647,0a6.246,6.246,0,1,1-6.247,6.247,6.246,6.246,0,0,1,6.247-6.247ZM296.966,2111.88H470.494v129.538a2.071,2.071,0,0,1-2.206,2.206H299.172a2.071,2.071,0,0,1-2.206-2.206Zm86.764,21.035c-11.518,0-20.6,9.95-20.6,21.721v12.425H352.359a6.33,6.33,0,0,0-6.344,6.344v41.19a6.33,6.33,0,0,0,6.344,6.344H415.1a6.33,6.33,0,0,0,6.344-6.344V2173.4a6.33,6.33,0,0,0-6.344-6.344H404.333v-12.425C404.333,2142.864,395.248,2132.915,383.73,2132.915Zm0,9.89c5.831,0,10.713,5.014,10.713,11.83v12.425H373.018v-12.425C373.018,2147.819,377.9,2142.8,383.73,2142.8Zm0,37.974a7.308,7.308,0,0,1,2.141,14.3l3.29,12.375H378.3l3.288-12.37a7.311,7.311,0,0,1,2.141-14.3Z" transform="translate(-283.73 -2075.368)"/></svg>