<svg width="85" height="26" viewBox="0 0 85 26" fill="none" xmlns="http://www.w3.org/2000/svg">
<path d="M15.0645 1.55078L16.084 7.4043H15.4863C15.1699 6.34961 14.8594 5.51758 14.5547 4.9082C14.25 4.29883 13.9102 3.78906 13.5352 3.37891C12.9375 2.71094 12.2168 2.18945 11.373 1.81445C10.541 1.43945 9.66797 1.25195 8.75391 1.25195C7.46484 1.25195 6.41016 1.60352 5.58984 2.30664C4.76953 2.99805 4.35938 3.89453 4.35938 4.99609C4.35938 6.20312 4.89258 7.20508 5.95898 8.00195C6.50977 8.40039 7.0957 8.75781 7.7168 9.07422C8.34961 9.37891 9.33398 9.8125 10.6699 10.375C11.584 10.7383 12.3574 11.0664 12.9902 11.3594C13.623 11.6523 14.1328 11.916 14.5195 12.1504C14.9062 12.3848 15.293 12.6543 15.6797 12.959C17.3086 14.2715 18.123 15.9883 18.123 18.1094C18.123 19.5039 17.7422 20.7637 16.9805 21.8887C16.2188 23.0137 15.1641 23.8984 13.8164 24.543C12.4688 25.1758 10.9746 25.4922 9.33398 25.4922C8.19727 25.4922 6.88477 25.3223 5.39648 24.9824C4.51758 24.7715 3.36328 24.3965 1.93359 23.8574L1.44141 23.6816L0.914062 17.0195H1.44141C1.95703 18.8125 2.78906 20.4121 3.9375 21.8184C5.44922 23.6582 7.24805 24.5781 9.33398 24.5781C10.4004 24.5781 11.3438 24.3789 12.1641 23.9805C12.9961 23.5703 13.6465 23.0137 14.1152 22.3105C14.584 21.5957 14.8184 20.7812 14.8184 19.8672C14.8184 19.0586 14.6367 18.332 14.2734 17.6875C13.9102 17.0312 13.3184 16.416 12.498 15.8418C11.6777 15.2559 10.5527 14.6582 9.12305 14.0488C7.04883 13.1465 5.78906 12.5723 5.34375 12.3262C4.48828 11.8457 3.7793 11.3242 3.2168 10.7617C2.6543 10.1992 2.23828 9.58984 1.96875 8.93359C1.69922 8.27734 1.56445 7.57422 1.56445 6.82422C1.56445 5.66406 1.86914 4.60352 2.47852 3.64258C3.09961 2.68164 3.94336 1.92578 5.00977 1.375C6.08789 0.824219 7.27734 0.548828 8.57812 0.548828C9.39844 0.548828 10.3125 0.683594 11.3203 0.953125L12.375 1.23438C13.1602 1.44531 13.998 1.55078 14.8887 1.55078H15.0645ZM13.7285 23.5234C15.6621 22.1289 16.6289 20.4531 16.6289 18.4961C16.6289 17.7227 16.4648 16.9727 16.1367 16.2461C15.8203 15.5078 15.3633 14.8809 14.7656 14.3652C13.8984 13.5801 12.3691 12.7305 10.1777 11.8164C8.36133 11.043 7.17773 10.5215 6.62695 10.252C6.08789 9.98242 5.53711 9.61914 4.97461 9.16211C3.80273 8.22461 3.2168 7.04102 3.2168 5.61133C3.2168 5.18945 3.26367 4.80859 3.35742 4.46875C3.45117 4.11719 3.5918 3.7832 3.7793 3.4668C3.9668 3.13867 4.27734 2.70508 4.71094 2.16602C3.03516 3.37305 2.19727 4.87891 2.19727 6.68359C2.19727 8.41797 2.87695 9.78906 4.23633 10.7969C4.95117 11.3359 5.77148 11.8164 6.69727 12.2383C6.81445 12.2969 7.7168 12.6953 9.4043 13.4336C11.4434 14.3125 12.8496 15.1094 13.623 15.8242C14.8535 16.9609 15.4688 18.3027 15.4688 19.8496C15.4688 20.5996 15.3281 21.2676 15.0469 21.8535C14.7773 22.4277 14.3379 22.9844 13.7285 23.5234ZM2.00391 22.8379C2.77734 23.2832 3.76172 23.7109 4.95703 24.1211C4.17188 23.418 3.57422 22.8379 3.16406 22.3809C2.76562 21.9238 2.30859 21.2793 1.79297 20.4473L2.00391 22.8379Z" fill="black"/>
<path d="M25.418 13.873C26.1445 13.0176 26.8418 12.3145 27.5098 11.7637C28.1777 11.2012 28.8223 10.8027 29.4434 10.5684C30.0645 10.334 30.7383 10.2168 31.4648 10.2168C32.3555 10.2168 33.1816 10.4277 33.9434 10.8496C34.7168 11.2715 35.3086 11.8398 35.7188 12.5547C36.1875 13.3516 36.4219 14.4297 36.4219 15.7891V21.625C36.4219 22.5977 36.5625 23.2891 36.8438 23.6992C37.1367 24.1094 37.6816 24.3848 38.4785 24.5254V25H30.7617V24.5254C31.5586 24.3848 32.0977 24.1094 32.3789 23.6992C32.6719 23.2891 32.8184 22.5977 32.8184 21.625V15.6836C32.8184 14.4062 32.7363 13.5215 32.5723 13.0293C32.3965 12.4902 32.1152 12.0742 31.7285 11.7812C31.3418 11.4766 30.8789 11.3242 30.3398 11.3242C29.5898 11.3242 28.8574 11.5762 28.1426 12.0801C27.4395 12.584 26.5312 13.4922 25.418 14.8047V21.625C25.418 22.5977 25.5586 23.2891 25.8398 23.6992C26.1328 24.1094 26.6777 24.3848 27.4746 24.5254V25H19.7578V24.5254C20.5547 24.3848 21.0996 24.1152 21.3926 23.7168C21.6855 23.3066 21.832 22.6094 21.832 21.625V4.64453C21.832 3.66016 21.6797 2.96289 21.375 2.55273C21.082 2.13086 20.543 1.86133 19.7578 1.74414V1.35742L25.418 0.707031V13.873ZM32.5195 24.2266H36.0176L35.6133 23.9102C35.6133 23.9102 35.6016 23.9043 35.5781 23.8926C35.5664 23.8691 35.5547 23.8574 35.543 23.8574L35.3145 23.6816C35.1387 23.5059 35.0508 23.2832 35.0508 23.0137V22.6621L35.0332 22.4863V15.7715C35.0332 14.8809 34.9746 14.1777 34.8574 13.6621C34.7402 13.1465 34.541 12.6953 34.2598 12.3086C33.5332 11.3242 32.5898 10.832 31.4297 10.832C31.3125 10.832 31.043 10.8555 30.6211 10.9023C31.3477 11.0078 31.9102 11.2246 32.3086 11.5527C32.707 11.8691 32.9883 12.3496 33.1523 12.9941C33.3281 13.6387 33.416 14.5293 33.416 15.666V22.4863C33.416 22.9668 33.3926 23.2656 33.3457 23.3828C33.3105 23.5 33.1758 23.6582 32.9414 23.8574C32.918 23.8809 32.9004 23.8926 32.8887 23.8926C32.8887 23.8926 32.8828 23.8984 32.8711 23.9102L32.5195 24.2266ZM21.5156 24.2266H25.0312L24.6094 23.9102C24.5859 23.8867 24.5625 23.8691 24.5391 23.8574L24.3105 23.6816C24.1465 23.5176 24.0586 23.2949 24.0469 23.0137V22.6621V1.44531L21.1641 1.76172L21.8496 2.25391C21.8613 2.25391 21.8848 2.27148 21.9199 2.30664L22.1484 2.48242C22.2656 2.56445 22.3418 2.6875 22.377 2.85156C22.4121 3.00391 22.4297 3.2793 22.4297 3.67773V22.4863C22.4297 22.9668 22.4062 23.2656 22.3594 23.3828C22.3125 23.5 22.1719 23.6582 21.9375 23.8574C21.9375 23.8574 21.9258 23.8633 21.9023 23.875C21.8906 23.8867 21.8848 23.8984 21.8848 23.9102L21.5156 24.2266Z" fill="black"/>
<path d="M40.0781 25V24.5254C40.875 24.3848 41.4199 24.1152 41.7129 23.7168C42.0059 23.3066 42.1523 22.6094 42.1523 21.625V14.2422C42.1523 13.2578 42 12.5605 41.6953 12.1504C41.4023 11.7285 40.8633 11.459 40.0781 11.3418V10.9551L45.7383 10.3047V21.625C45.7383 22.5977 45.8789 23.2891 46.1602 23.6992C46.4531 24.1094 46.998 24.3848 47.7949 24.5254V25H40.0781ZM41.6777 5.50586C41.6777 4.91992 41.877 4.42188 42.2754 4.01172C42.6738 3.60156 43.1719 3.39648 43.7695 3.39648C44.3672 3.39648 44.8652 3.60156 45.2637 4.01172C45.6621 4.42188 45.8613 4.91992 45.8613 5.50586C45.8613 6.10352 45.6621 6.60156 45.2637 7C44.8652 7.39844 44.3672 7.59766 43.7695 7.59766C43.1719 7.59766 42.6738 7.39844 42.2754 7C41.877 6.60156 41.6777 6.10352 41.6777 5.50586ZM41.8359 24.2266H45.3516L44.9297 23.9102C44.9062 23.8867 44.8828 23.8691 44.8594 23.8574L44.6309 23.6816C44.4668 23.5176 44.3789 23.2949 44.3672 23.0137V22.6621V22.4863V11.043L41.4844 11.3594L42.1699 11.8516C42.1816 11.8516 42.2051 11.8691 42.2402 11.9043L42.4688 12.0801C42.5859 12.1621 42.6621 12.2852 42.6973 12.4492C42.7324 12.6016 42.75 12.877 42.75 13.2754V22.4863C42.75 22.9668 42.7266 23.2656 42.6797 23.3828C42.6328 23.5 42.4922 23.6582 42.2578 23.8574C42.2578 23.8574 42.2461 23.8633 42.2227 23.875C42.2109 23.8867 42.2051 23.8984 42.2051 23.9102L41.8359 24.2266ZM43.6816 3.87109C43.2715 3.89453 42.9141 4.07031 42.6094 4.39844C42.3164 4.71484 42.1699 5.08398 42.1699 5.50586C42.1699 5.92773 42.3223 6.30273 42.627 6.63086C42.9316 6.95898 43.2832 7.12305 43.6816 7.12305C43.9395 7.12305 44.0684 6.98828 44.0684 6.71875C44.0801 6.50781 44.0859 6.08008 44.0859 5.43555C44.0859 4.81445 44.0801 4.41602 44.0684 4.24023C44.0566 4.00586 43.9277 3.88281 43.6816 3.87109Z" fill="black"/>
<path d="M54.9844 13.873C55.7109 13.0176 56.4082 12.3145 57.0762 11.7637C57.7441 11.2012 58.3887 10.8027 59.0098 10.5684C59.6309 10.334 60.3047 10.2168 61.0312 10.2168C61.9219 10.2168 62.748 10.4277 63.5098 10.8496C64.2832 11.2715 64.875 11.8398 65.2852 12.5547C65.7539 13.3516 65.9883 14.4297 65.9883 15.7891V21.625C65.9883 22.5977 66.1289 23.2891 66.4102 23.6992C66.7031 24.1094 67.248 24.3848 68.0449 24.5254V25H60.3281V24.5254C61.125 24.3848 61.6641 24.1094 61.9453 23.6992C62.2383 23.2891 62.3848 22.5977 62.3848 21.625V15.6836C62.3848 14.4062 62.3027 13.5215 62.1387 13.0293C61.9629 12.4902 61.6816 12.0742 61.2949 11.7812C60.9082 11.4766 60.4453 11.3242 59.9062 11.3242C59.1562 11.3242 58.4238 11.5762 57.709 12.0801C57.0059 12.584 56.0977 13.4922 54.9844 14.8047V21.625C54.9844 22.5977 55.125 23.2891 55.4062 23.6992C55.6992 24.1094 56.2441 24.3848 57.041 24.5254V25H49.3242V24.5254C50.1211 24.3848 50.666 24.1152 50.959 23.7168C51.252 23.3066 51.3984 22.6094 51.3984 21.625V14.2422C51.3984 13.2578 51.2461 12.5605 50.9414 12.1504C50.6484 11.7285 50.1094 11.459 49.3242 11.3418V10.9551L54.9844 10.3047V13.873ZM62.0859 24.2266H65.584L65.1797 23.9102C65.1797 23.9102 65.168 23.9043 65.1445 23.8926C65.1328 23.8691 65.1211 23.8574 65.1094 23.8574L64.8809 23.6816C64.7051 23.5059 64.6172 23.2832 64.6172 23.0137V22.6621L64.5996 22.4863V15.7715C64.5996 14.8809 64.541 14.1777 64.4238 13.6621C64.3066 13.1465 64.1074 12.6953 63.8262 12.3086C63.0996 11.3242 62.1562 10.832 60.9961 10.832C60.8789 10.832 60.6094 10.8555 60.1875 10.9023C60.9141 11.0078 61.4766 11.2246 61.875 11.5527C62.2734 11.8691 62.5547 12.3496 62.7188 12.9941C62.8945 13.6387 62.9824 14.5293 62.9824 15.666V22.4863C62.9824 22.9668 62.959 23.2656 62.9121 23.3828C62.877 23.5 62.7422 23.6582 62.5078 23.8574C62.4844 23.8809 62.4668 23.8926 62.4551 23.8926C62.4551 23.8926 62.4492 23.8984 62.4375 23.9102L62.0859 24.2266ZM51.082 24.2266H54.5977L54.1758 23.9102C54.1523 23.8867 54.1289 23.8691 54.1055 23.8574L53.877 23.6816C53.7129 23.5176 53.625 23.2949 53.6133 23.0137V22.6621V19.0586V17.2305V11.043L50.7305 11.3594L51.416 11.8516C51.4277 11.8516 51.4512 11.8691 51.4863 11.9043L51.7148 12.0801C51.832 12.1621 51.9082 12.2852 51.9434 12.4492C51.9785 12.6016 51.9961 12.877 51.9961 13.2754V22.4863C51.9961 22.9668 51.9727 23.2656 51.9258 23.3828C51.8789 23.5 51.7383 23.6582 51.5039 23.8574C51.5039 23.8574 51.4922 23.8633 51.4688 23.875C51.457 23.8867 51.4512 23.8984 51.4512 23.9102L51.082 24.2266Z" fill="black"/>
<path d="M73.5293 16.8086V17.1953C73.5293 18.5898 73.7344 19.8145 74.1445 20.8691C74.5547 21.9121 75.1348 22.7207 75.8848 23.2949C76.6465 23.8691 77.5371 24.1562 78.5566 24.1562C79.0957 24.1562 79.6348 24.0684 80.1738 23.8926C80.7246 23.7051 81.2637 23.4414 81.791 23.1016C82.3301 22.7617 82.9336 22.2812 83.6016 21.6602L83.9531 22.1348C82.7461 23.3066 81.5977 24.1445 80.5078 24.6484C79.4297 25.1523 78.2227 25.4043 76.8867 25.4043C75.4922 25.4043 74.2383 25.0996 73.125 24.4902C72.0234 23.8809 71.168 23.0195 70.5586 21.9062C69.9492 20.793 69.6445 19.5391 69.6445 18.1445C69.6445 16.6797 69.9785 15.3379 70.6465 14.1191C71.3262 12.9004 72.2461 11.9453 73.4062 11.2539C74.5781 10.5625 75.8848 10.2168 77.3262 10.2168C78.5566 10.2168 79.6816 10.4688 80.7012 10.9727C81.7324 11.4766 82.5352 12.1855 83.1094 13.0996C83.7188 14.0371 84.0586 15.2734 84.1289 16.8086H73.5293ZM73.5293 16.1934H80.543C80.5312 14.6113 80.373 13.4746 80.0684 12.7832C79.7988 12.1504 79.4121 11.6641 78.9082 11.3242C78.4043 10.9727 77.8418 10.7969 77.2207 10.7969C74.9707 10.7969 73.7402 12.5957 73.5293 16.1934ZM77.6426 24.877C76.8105 24.7715 76.1426 24.6133 75.6387 24.4023C75.1348 24.1914 74.6426 23.8633 74.1621 23.418C73.4473 22.7617 72.8906 21.9004 72.4922 20.834C72.0938 19.7559 71.8945 18.584 71.8945 17.3184C71.8945 16.4395 71.9766 15.6309 72.1406 14.8926C72.3164 14.1543 72.5801 13.4922 72.9316 12.9062C73.2949 12.3203 73.7812 11.7637 74.3906 11.2363C73.0547 11.9629 72.0293 12.9238 71.3145 14.1191C70.5996 15.3145 70.2422 16.6504 70.2422 18.127C70.2422 19.3926 70.5293 20.5469 71.1035 21.5898C71.6777 22.6211 72.4746 23.4297 73.4941 24.0156C74.5254 24.6016 75.6621 24.8945 76.9043 24.8945C77.1855 24.8945 77.4316 24.8887 77.6426 24.877ZM82.6699 16.1934C82.6348 15.3262 82.4766 14.541 82.1953 13.8379C81.9141 13.1348 81.5215 12.543 81.0176 12.0625C80.5254 11.5703 79.9395 11.2188 79.2598 11.0078C79.9395 11.5469 80.4258 12.1855 80.7188 12.9238C81.0234 13.6621 81.1758 14.5879 81.1758 15.7012C81.1758 15.8887 81.1699 16.0527 81.1582 16.1934H82.6699Z" fill="black"/>
</svg>
